<svg xmlns="http://www.w3.org/2000/svg" width="148.628" height="31.589" viewBox="0 0 148.628 31.589">
  <g id="LettermarkGroup" transform="translate(-1576 -78)">
    <g id="Group_11" data-name="Group 11" transform="translate(1576 78)">
      <path id="Path_13" data-name="Path 13" d="M14.488-48.154h3.033v.853H15.151v11.814a8.883,8.883,0,0,1-.458,2.969,6.5,6.5,0,0,1-1.264,2.2,5.639,5.639,0,0,1-1.88,1.39,5.862,5.862,0,0,1-2.306.521,10.431,10.431,0,0,1-2.669-.49,4.544,4.544,0,0,1-2.164-1.406l.663-.6a4.085,4.085,0,0,0,1.88,1.232,7.207,7.207,0,0,0,2.259.379,4.548,4.548,0,0,0,1.974-.442A4.753,4.753,0,0,0,12.8-30.985a6.3,6.3,0,0,0,1.09-1.943,7.4,7.4,0,0,0,.411-2.527v-2.338q0-.442.016-.853t.047-.853a5.237,5.237,0,0,1-2.022,2.4,5.9,5.9,0,0,1-3.38.979,6.144,6.144,0,0,1-2.417-.474A6.094,6.094,0,0,1,4.585-37.9a6.142,6.142,0,0,1-1.311-1.943,6.03,6.03,0,0,1-.474-2.4,6.064,6.064,0,0,1,.474-2.385A6.094,6.094,0,0,1,4.585-46.59a6.313,6.313,0,0,1,1.959-1.327,5.973,5.973,0,0,1,2.417-.49,5.961,5.961,0,0,1,1.8.269,6.109,6.109,0,0,1,1.564.742,5.642,5.642,0,0,1,1.232,1.106,5.146,5.146,0,0,1,.806,1.327q0-.79.032-1.579T14.488-48.154Zm-10.8,5.907A5.221,5.221,0,0,0,4.1-40.178,5.254,5.254,0,0,0,5.217-38.5a5.254,5.254,0,0,0,1.674,1.121,5.221,5.221,0,0,0,2.069.411,5.336,5.336,0,0,0,2.085-.411A5.4,5.4,0,0,0,12.751-38.5a5.129,5.129,0,0,0,1.137-1.674,5.221,5.221,0,0,0,.411-2.069,5.221,5.221,0,0,0-.411-2.069,5.31,5.31,0,0,0-1.137-1.69,5.264,5.264,0,0,0-1.706-1.137,5.336,5.336,0,0,0-2.085-.411,5.221,5.221,0,0,0-2.069.411,5.128,5.128,0,0,0-1.674,1.137A5.445,5.445,0,0,0,4.1-44.316,5.221,5.221,0,0,0,3.685-42.247Zm22.207-5.307a4.984,4.984,0,0,0-2.369.569A5.457,5.457,0,0,0,21.738-45.5a5.457,5.457,0,0,0-1,2.116,5.008,5.008,0,0,0,.032,2.432q2.369-.948,4.691-1.88t4.691-1.88a5.188,5.188,0,0,0-1.722-2.053A4.309,4.309,0,0,0,25.892-47.554Zm5.4,3.317q-2.559,1.042-5.117,2.053T21.059-40.13a5.121,5.121,0,0,0,1.88,2.29,5.132,5.132,0,0,0,2.954.869,5.154,5.154,0,0,0,1.99-.379,5.583,5.583,0,0,0,1.643-1.042l.253.316a3.847,3.847,0,0,0,.284.316,6.058,6.058,0,0,1-1.88,1.232,5.879,5.879,0,0,1-2.29.442,5.973,5.973,0,0,1-2.417-.49,6.257,6.257,0,0,1-1.943-1.311,6.257,6.257,0,0,1-1.311-1.943,5.973,5.973,0,0,1-.49-2.417,6.007,6.007,0,0,1,.49-2.4,6.208,6.208,0,0,1,1.311-1.959,6.257,6.257,0,0,1,1.943-1.311,5.973,5.973,0,0,1,2.417-.49,5.128,5.128,0,0,1,3.333,1.169A6.519,6.519,0,0,1,31.294-44.237Zm8.434-3.317a4.984,4.984,0,0,0-2.369.569A5.457,5.457,0,0,0,35.574-45.5a5.457,5.457,0,0,0-1,2.116,5.008,5.008,0,0,0,.032,2.432q2.369-.948,4.691-1.88t4.691-1.88a5.188,5.188,0,0,0-1.722-2.053A4.309,4.309,0,0,0,39.728-47.554Zm5.4,3.317q-2.559,1.042-5.117,2.053T34.895-40.13a5.121,5.121,0,0,0,1.88,2.29,5.132,5.132,0,0,0,2.954.869,5.154,5.154,0,0,0,1.99-.379,5.583,5.583,0,0,0,1.643-1.042l.253.316a3.847,3.847,0,0,0,.284.316,6.058,6.058,0,0,1-1.88,1.232,5.879,5.879,0,0,1-2.29.442,5.973,5.973,0,0,1-2.417-.49,6.257,6.257,0,0,1-1.943-1.311,6.257,6.257,0,0,1-1.311-1.943,5.973,5.973,0,0,1-.49-2.417,6.007,6.007,0,0,1,.49-2.4,6.208,6.208,0,0,1,1.311-1.959,6.257,6.257,0,0,1,1.943-1.311,5.973,5.973,0,0,1,2.417-.49,5.128,5.128,0,0,1,3.333,1.169A6.519,6.519,0,0,1,45.13-44.237Zm10.045,7.076h1.9Q56-38.614,54.907-40.067T52.774-43l-2.18,2.053v3.791h2.622v.853H47.4v-.853H49.71V-59.147H47.436V-60h3.159v17.911l5.56-5.212H54.006v-.853h5.654v.853H57.292q-1.074,1.011-1.911,1.848t-1.943,1.848l2.338,3.222q1.169,1.611,2.369,3.222H60.83v.853H55.175ZM63.041-38.8h1.422V-55.925H63.041v-2.5h6.634a9.8,9.8,0,0,1,2.385.332,8.3,8.3,0,0,1,2.448,1.058,6.4,6.4,0,0,1,1.9,1.864,4.841,4.841,0,0,1,.758,2.748,6.466,6.466,0,0,1-1.185,3.964,5.646,5.646,0,0,1-3.459,2.1l3.538,7.55h2.969v2.5H74.413l-4.644-9.856H67.084v7.36h3.6v2.5H63.041Zm4.043-9.887h2.748a6.177,6.177,0,0,0,2.29-.363,4.255,4.255,0,0,0,1.437-.9,3.053,3.053,0,0,0,.758-1.2,4,4,0,0,0,.221-1.264,2.623,2.623,0,0,0-.363-1.327,3.938,3.938,0,0,0-.979-1.121,4.72,4.72,0,0,0-1.485-.774,5.9,5.9,0,0,0-1.848-.284h-2.78Zm14.152,6.476a5.931,5.931,0,0,1,.49-2.369,6.319,6.319,0,0,1,1.343-1.99,6.441,6.441,0,0,1,2.022-1.358,6.22,6.22,0,0,1,2.5-.505,4.777,4.777,0,0,1,1.579.253,7.956,7.956,0,0,1,1.264.553,4.748,4.748,0,0,1,.853.584q.316.284.316.379a4.422,4.422,0,0,1,.063-.727,4.6,4.6,0,0,0,.063-.758H93.9v9.35h2.4v2.5H91.6v-1.264a1.25,1.25,0,0,1-.316.347,3.955,3.955,0,0,1-.806.521,6.739,6.739,0,0,1-1.248.474,6.044,6.044,0,0,1-1.643.205,6.393,6.393,0,0,1-2.5-.49,6.228,6.228,0,0,1-2.022-1.343,6.371,6.371,0,0,1-1.343-1.974A5.9,5.9,0,0,1,81.236-42.215Zm2.654-.032a3.6,3.6,0,0,0,1.027,2.606,3.553,3.553,0,0,0,2.669,1.058,3.553,3.553,0,0,0,2.669-1.058,3.6,3.6,0,0,0,1.027-2.606,3.531,3.531,0,0,0-1.027-2.606,3.611,3.611,0,0,0-2.669-1.027,3.611,3.611,0,0,0-2.669,1.027A3.531,3.531,0,0,0,83.89-42.247Zm24.987,5.307v-.632a1.25,1.25,0,0,1-.316.347,3.955,3.955,0,0,1-.806.521,6.74,6.74,0,0,1-1.248.474,6.044,6.044,0,0,1-1.643.205,6.393,6.393,0,0,1-2.5-.49,6.228,6.228,0,0,1-2.022-1.343,6.319,6.319,0,0,1-1.343-1.99,6.007,6.007,0,0,1-.49-2.4,5.9,5.9,0,0,1,.49-2.385,6.371,6.371,0,0,1,1.343-1.974,6.228,6.228,0,0,1,2.022-1.343,6.393,6.393,0,0,1,2.5-.49,5.022,5.022,0,0,1,1.5.221,7.317,7.317,0,0,1,1.248.505,4.774,4.774,0,0,1,.869.569,2.782,2.782,0,0,1,.395.379,3.794,3.794,0,0,0-.158-.49,3.793,3.793,0,0,1-.158-.49V-57.5h-2.085V-60h4.707v21.2h2.4v2.5h-4.707Zm-7.708-5.307a3.6,3.6,0,0,0,1.027,2.606,3.553,3.553,0,0,0,2.669,1.058,3.553,3.553,0,0,0,2.669-1.058,3.6,3.6,0,0,0,1.027-2.606,3.531,3.531,0,0,0-1.027-2.606,3.611,3.611,0,0,0-2.669-1.027,3.611,3.611,0,0,0-2.669,1.027A3.531,3.531,0,0,0,101.169-42.247ZM115.8-38.8h2.211v-6.855H115.8v-2.5h4.833v9.35h2.18v2.5H115.8Zm9.224-9.35h4.707v7.392a2.4,2.4,0,0,0,.616,1.469,2.427,2.427,0,0,0,1.753.679,4.334,4.334,0,0,0,1.564-.284,4.231,4.231,0,0,0,1.311-.79,3.957,3.957,0,0,0,.916-1.2,3.343,3.343,0,0,0,.347-1.516v-3.254h-2.085v-2.5h4.707v9.635h1.959v2.211h-4.58v-1.611l.095-1.422a5.176,5.176,0,0,1-2.038,2.417,5.651,5.651,0,0,1-3.112.9A4.2,4.2,0,0,1,128.241-37a3.5,3.5,0,0,1-1.137-2.559v-6.1h-2.085ZM145.742-40.1v1.232a2.908,2.908,0,0,0,.742.205,7.142,7.142,0,0,0,.9.047q.032,0,.237-.016a1.435,1.435,0,0,0,.458-.126,1.377,1.377,0,0,0,.458-.332,1.061,1.061,0,0,0,.237-.663,1.006,1.006,0,0,0-.316-.869,2.921,2.921,0,0,0-.9-.505q-.553-.205-1.216-.411a5.349,5.349,0,0,1-1.248-.569,2.833,2.833,0,0,1-.963-1.027,3.558,3.558,0,0,1-.379-1.769,3.268,3.268,0,0,1,.379-1.643,3.53,3.53,0,0,1,.948-1.09,3.762,3.762,0,0,1,1.232-.616,4.412,4.412,0,0,1,1.2-.19,5.819,5.819,0,0,1,.774.063,5.188,5.188,0,0,1,.932.221,5.581,5.581,0,0,1,.932.411,3.146,3.146,0,0,1,.806.632v2.748h-2.338v-1.358a2.981,2.981,0,0,0-.948-.158,1.432,1.432,0,0,0-1.011.3.893.893,0,0,0-.253.806.876.876,0,0,0,.474.616,7.542,7.542,0,0,0,.963.458q.553.221,1.185.505a5.5,5.5,0,0,1,1.169.711,3.409,3.409,0,0,1,.885,1.074,3.415,3.415,0,0,1,.347,1.627,4.168,4.168,0,0,1-.174,1.074,3.758,3.758,0,0,1-.616,1.232,3.5,3.5,0,0,1-1.232,1.011,4.449,4.449,0,0,1-2.053.411,8.3,8.3,0,0,1-2.243-.3,3.521,3.521,0,0,1-1.706-1V-40.1Z" transform="translate(-2.8 60)" fill="#fff"/>
      <circle id="Ellipse_7" data-name="Ellipse 7" cx="2.014" cy="2.014" r="2.014" transform="translate(113.919 5.252)" fill="#ff6464"/>
    </g>
  </g>
</svg>
